<svg width="192" height="65" viewBox="0 0 192 65" fill="none" xmlns="http://www.w3.org/2000/svg">
<g clip-path="url(#clip0_13493_16841)">
<g clip-path="url(#clip1_13493_16841)">
<path d="M176.216 0.500208H15.2555C14.6688 0.500208 14.0891 0.500208 13.5039 0.503408C13.0141 0.506608 12.5281 0.515904 12.0336 0.523728C10.9592 0.536371 9.88737 0.63089 8.82736 0.806464C7.76884 0.98586 6.74348 1.32407 5.78595 1.80966C4.8296 2.29936 3.95575 2.93568 3.19611 3.69552C2.43248 4.45323 1.79594 5.32903 1.31096 6.28926C0.82464 7.24758 0.487425 8.27451 0.31096 9.33458C0.132818 10.3933 0.0369574 11.4642 0.02424 12.5378C0.009392 13.0283 0.007824 13.5205 0 14.0112V50.994C0.007824 51.4908 0.009392 51.972 0.02424 52.469C0.0369613 53.5425 0.132821 54.6134 0.31096 55.672C0.486938 56.7327 0.824173 57.7602 1.31096 58.7189C1.79572 59.676 2.43235 60.5483 3.19611 61.3018C3.95287 62.065 4.82728 62.7018 5.78595 63.1877C6.74347 63.6746 7.76872 64.0148 8.82736 64.197C9.88755 64.3712 10.9593 64.4657 12.0336 64.4799C12.5281 64.4908 13.0141 64.497 13.5039 64.497C14.0891 64.5002 14.6688 64.5002 15.2555 64.5002H176.216C176.791 64.5002 177.375 64.5002 177.95 64.497C178.438 64.497 178.938 64.4908 179.425 64.4799C180.497 64.4665 181.567 64.3719 182.625 64.197C183.687 64.0136 184.716 63.6734 185.678 63.1877C186.636 62.7015 187.51 62.0648 188.266 61.3018C189.028 60.5454 189.665 59.6737 190.156 58.7189C190.639 57.7595 190.973 56.7321 191.147 55.672C191.325 54.6132 191.425 53.5426 191.444 52.469C191.45 51.972 191.45 51.4908 191.45 50.994C191.463 50.4127 191.463 49.8346 191.463 49.2439V15.758C191.463 15.1721 191.463 14.5908 191.45 14.0112C191.45 13.5205 191.45 13.0283 191.444 12.5377C191.425 11.4641 191.325 10.3934 191.147 9.33451C190.973 8.27506 190.639 7.24821 190.156 6.2892C189.169 4.36452 187.603 2.79785 185.678 1.80952C184.716 1.32512 183.687 0.986993 182.625 0.80632C181.567 0.629972 180.497 0.53542 179.425 0.523504C178.938 0.515696 178.438 0.50632 177.95 0.5032C177.375 0.5 176.791 0.500208 176.216 0.500208Z" fill="black"/>
<path d="M13.5116 63.0999C13.0242 63.0999 12.5484 63.0937 12.0648 63.0828C11.0628 63.0697 10.0632 62.9825 9.07415 62.8218C8.1519 62.663 7.25848 62.3675 6.42337 61.9452C5.59592 61.5263 4.84121 60.9771 4.18817 60.3186C3.52567 59.6679 2.97412 58.9131 2.55535 58.0842C2.13198 57.25 1.83897 56.3557 1.68655 55.4327C1.52195 54.4409 1.4329 53.438 1.42015 52.4327C1.41001 52.0953 1.39673 50.9717 1.39673 50.9717V14.0108C1.39673 14.0108 1.41087 12.9046 1.42023 12.5796C1.43243 11.5759 1.52097 10.5745 1.68508 9.58427C1.83778 8.6587 2.13101 7.7619 2.55462 6.92491C2.97184 6.09661 3.52034 5.34128 4.17884 4.68819C4.83661 4.0289 5.59372 3.47687 6.42258 3.05224C7.25578 2.63125 8.14751 2.33787 9.0679 2.18193C10.0602 2.01964 11.0633 1.9319 12.0687 1.91944L13.5124 1.8999H177.942L179.403 1.92022C180.399 1.93206 181.393 2.01902 182.377 2.18037C183.306 2.33826 184.207 2.63369 185.05 3.05693C186.71 3.91268 188.062 5.26656 188.914 6.92881C189.331 7.76003 189.619 8.64951 189.77 9.56709C189.936 10.5655 190.029 11.5747 190.048 12.5866C190.053 13.0397 190.053 13.5265 190.053 14.0108C190.066 14.6108 190.066 15.1819 190.066 15.7577V49.2436C190.066 49.8249 190.066 50.3921 190.053 50.9639C190.053 51.4842 190.053 51.9609 190.047 52.4514C190.028 53.4453 189.937 54.4365 189.773 55.417C189.624 56.3467 189.333 57.2479 188.909 58.089C188.488 58.9089 187.939 59.6571 187.284 60.3061C186.631 60.9682 185.875 61.5206 185.045 61.9421C184.205 62.3677 183.305 62.6643 182.377 62.8218C181.388 62.9834 180.388 63.0706 179.386 63.0828C178.917 63.0937 178.426 63.0999 177.95 63.0999L176.216 63.1031L13.5116 63.0999Z" fill="white"/>
<path d="M39.9948 32.3231C40.0127 30.9344 40.3815 29.5727 41.0671 28.3649C41.7526 27.157 42.7326 26.1422 43.9157 25.4148C43.1641 24.3413 42.1725 23.4579 41.0198 22.8348C39.867 22.2116 38.5848 21.8657 37.2751 21.8248C34.4811 21.5315 31.7725 23.4966 30.3487 23.4966C28.8974 23.4966 26.7053 21.8539 24.3447 21.9024C22.8179 21.9518 21.3298 22.3958 20.0256 23.1912C18.7213 23.9866 17.6454 25.1063 16.9025 26.4412C13.6847 32.0124 16.0849 40.2002 19.1673 44.7036C20.7095 46.9087 22.5119 49.3719 24.8703 49.2846C27.1782 49.1889 28.0401 47.813 30.8259 47.813C33.5858 47.813 34.3944 49.2846 36.8007 49.2291C39.2771 49.1889 40.8374 47.0141 42.3255 44.7881C43.4336 43.2168 44.2862 41.4802 44.8519 39.6426C43.4132 39.0341 42.1854 38.0156 41.3216 36.7139C40.4579 35.4123 39.9964 33.8852 39.9948 32.3231Z" fill="black"/>
<path d="M35.4498 18.863C36.8001 17.2421 37.4653 15.1587 37.3042 13.0552C35.2413 13.2718 33.3358 14.2578 31.9673 15.8165C31.2982 16.578 30.7858 17.4639 30.4593 18.4235C30.1327 19.3832 29.9986 20.3977 30.0644 21.4093C31.0962 21.4199 32.1169 21.1963 33.0498 20.7552C33.9826 20.3141 34.8032 19.6672 35.4498 18.863Z" fill="black"/>
<path d="M67.6828 43.9235H60.1093L58.2906 49.2938H55.0828L62.2562 29.425H65.589L72.7624 49.2938H69.4999L67.6828 43.9235ZM60.8937 41.4454H66.8969L63.9375 32.7298H63.8546L60.8937 41.4454Z" fill="black"/>
<path d="M88.2547 42.0516C88.2547 46.5531 85.8454 49.4453 82.2094 49.4453C81.2884 49.4935 80.3724 49.2813 79.5663 48.8331C78.7602 48.3849 78.0967 47.7187 77.6516 46.9109H77.5828V54.0859H74.6094V34.8078H77.4875V37.2172H77.5422C78.0077 36.4132 78.6825 35.7505 79.4947 35.2996C80.3069 34.8486 81.2262 34.6263 82.1547 34.6562C85.8313 34.6563 88.2547 37.5625 88.2547 42.0516ZM85.1985 42.0516C85.1985 39.1188 83.6828 37.1906 81.3703 37.1906C79.0985 37.1906 77.5703 39.1594 77.5703 42.0516C77.5703 44.9703 79.0985 46.925 81.3703 46.925C83.6829 46.925 85.1985 45.0109 85.1985 42.0516Z" fill="black"/>
<path d="M104.199 42.0516C104.199 46.5531 101.789 49.4453 98.153 49.4453C97.232 49.4935 96.316 49.2813 95.5099 48.8331C94.7038 48.3849 94.0403 47.7187 93.5952 46.9109H93.5264V54.0859H90.553V34.8078H93.4311V37.2172H93.4858C93.9513 36.4132 94.6261 35.7505 95.4383 35.2996C96.2505 34.8486 97.1698 34.6263 98.0983 34.6562C101.775 34.6563 104.199 37.5625 104.199 42.0516ZM101.142 42.0516C101.142 39.1188 99.6265 37.1906 97.314 37.1906C95.0421 37.1906 93.514 39.1594 93.514 42.0516C93.514 44.9703 95.0421 46.925 97.314 46.925C99.6265 46.925 101.142 45.0109 101.142 42.0516Z" fill="black"/>
<path d="M114.735 43.7579C114.955 45.7282 116.869 47.0219 119.485 47.0219C121.991 47.0219 123.794 45.7282 123.794 43.9516C123.794 42.4094 122.707 41.486 120.132 40.8531L117.557 40.2328C113.908 39.3516 112.215 37.6453 112.215 34.8766C112.215 31.4484 115.202 29.0938 119.443 29.0938C123.643 29.0938 126.521 31.4484 126.618 34.8766H123.616C123.437 32.8937 121.797 31.6969 119.402 31.6969C117.007 31.6969 115.368 32.9078 115.368 34.6703C115.368 36.075 116.415 36.9016 118.976 37.5343L121.165 38.0718C125.241 39.0359 126.933 40.6734 126.933 43.5796C126.933 47.2968 123.974 49.6249 119.265 49.6249C114.858 49.6249 111.883 47.3515 111.691 43.7577L114.735 43.7579Z" fill="black"/>
<path d="M133.354 31.3799V34.808H136.108V37.1627H133.354V45.1486C133.354 46.3893 133.905 46.9674 135.116 46.9674C135.443 46.9617 135.77 46.9387 136.094 46.8986V49.2392C135.55 49.3409 134.997 49.387 134.443 49.3767C131.51 49.3767 130.366 48.2751 130.366 45.4658V37.1627H128.26V34.808H130.366V31.3799H133.354Z" fill="black"/>
<path d="M137.702 42.0518C137.702 37.4939 140.387 34.6299 144.573 34.6299C148.773 34.6299 151.445 37.4939 151.445 42.0518C151.445 46.6221 148.787 49.4736 144.573 49.4736C140.36 49.4736 137.702 46.6221 137.702 42.0518ZM148.415 42.0518C148.415 38.9252 146.982 37.0799 144.573 37.0799C142.163 37.0799 140.731 38.9393 140.731 42.0518C140.731 45.1908 142.163 47.0221 144.573 47.0221C146.982 47.0221 148.415 45.1908 148.415 42.0518Z" fill="black"/>
<path d="M153.896 34.8079H156.732V37.2735H156.801C156.993 36.5035 157.444 35.8229 158.078 35.3463C158.713 34.8697 159.492 34.626 160.285 34.6563C160.628 34.6551 160.969 34.6923 161.304 34.7673V37.5485C160.871 37.4163 160.42 37.3556 159.968 37.3688C159.536 37.3513 159.105 37.4275 158.706 37.5921C158.306 37.7567 157.946 38.0059 157.652 38.3225C157.358 38.6391 157.135 39.0157 157 39.4264C156.865 39.8371 156.821 40.2721 156.869 40.7016V49.2938H153.896L153.896 34.8079Z" fill="black"/>
<path d="M175.013 45.0393C174.613 47.6689 172.052 49.4736 168.776 49.4736C164.562 49.4736 161.946 46.6502 161.946 42.1205C161.946 37.5768 164.576 34.6299 168.651 34.6299C172.659 34.6299 175.179 37.383 175.179 41.7752V42.7939H164.948V42.9736C164.9 43.5067 164.967 44.0438 165.143 44.5492C165.32 45.0545 165.601 45.5166 165.97 45.9046C166.339 46.2927 166.786 46.5979 167.281 46.8C167.777 47.0021 168.31 47.0964 168.844 47.0767C169.547 47.1426 170.252 46.9798 170.855 46.6127C171.458 46.2456 171.926 45.6938 172.19 45.0392L175.013 45.0393ZM164.962 40.7158H172.204C172.231 40.2365 172.158 39.7568 171.99 39.3068C171.823 38.8569 171.564 38.4464 171.231 38.1012C170.897 37.756 170.496 37.4834 170.052 37.3007C169.608 37.118 169.131 37.0289 168.651 37.0393C168.167 37.0364 167.687 37.1294 167.238 37.313C166.79 37.4966 166.383 37.7671 166.04 38.1089C165.697 38.4507 165.425 38.8571 165.24 39.3045C165.055 39.7519 164.96 40.2316 164.962 40.7158Z" fill="black"/>
<path d="M60.5219 14.4696C61.1453 14.4248 61.7708 14.519 62.3534 14.7453C62.936 14.9716 63.4611 15.3244 63.8908 15.7782C64.3206 16.232 64.6442 16.7755 64.8385 17.3695C65.0327 17.9636 65.0927 18.5933 65.0141 19.2133C65.0141 22.2633 63.3657 24.0165 60.5219 24.0165H57.0735V14.4696H60.5219ZM58.5563 22.6664H60.3563C60.8017 22.693 61.2475 22.62 61.6612 22.4526C62.0748 22.2852 62.446 22.0277 62.7476 21.6988C63.0492 21.3699 63.2736 20.9779 63.4046 20.5513C63.5356 20.1247 63.5698 19.6743 63.5047 19.2328C63.5651 18.793 63.5274 18.3454 63.3944 17.9219C63.2614 17.4985 63.0364 17.1097 62.7355 16.7834C62.4346 16.4571 62.0652 16.2014 61.6539 16.0346C61.2426 15.8678 60.7995 15.7941 60.3563 15.8187H58.5563V22.6664Z" fill="black"/>
<path d="M66.6892 20.4111C66.6439 19.9376 66.698 19.4599 66.8482 19.0086C66.9983 18.5573 67.2411 18.1423 67.561 17.7903C67.8809 17.4384 68.2709 17.1571 68.7059 16.9647C69.1408 16.7723 69.6112 16.6729 70.0868 16.6729C70.5625 16.6729 71.0328 16.7723 71.4678 16.9647C71.9028 17.1571 72.2927 17.4384 72.6126 17.7903C72.9325 18.1423 73.1753 18.5573 73.3255 19.0086C73.4756 19.4599 73.5298 19.9376 73.4845 20.4111C73.5306 20.885 73.4771 21.3634 73.3274 21.8154C73.1776 22.2675 72.935 22.6832 72.615 23.0358C72.295 23.3885 71.9047 23.6703 71.4693 23.8632C71.034 24.056 70.563 24.1557 70.0868 24.1557C69.6106 24.1557 69.1397 24.056 68.7043 23.8632C68.2689 23.6703 67.8787 23.3885 67.5587 23.0358C67.2387 22.6832 66.996 22.2675 66.8463 21.8154C66.6965 21.3634 66.643 20.885 66.6892 20.4111ZM72.022 20.4111C72.022 18.8493 71.3204 17.9361 70.0892 17.9361C68.8532 17.9361 68.158 18.8493 68.158 20.4111C68.158 21.9853 68.8533 22.8915 70.0892 22.8915C71.3204 22.8915 72.022 21.979 72.022 20.4111Z" fill="black"/>
<path d="M82.5172 24.0165H81.0422L79.5532 18.7102H79.4407L77.9579 24.0165H76.4969L74.511 16.8118H75.9532L77.2438 22.3094H77.3501L78.8313 16.8118H80.1954L81.6766 22.3094H81.7891L83.0735 16.8118H84.4954L82.5172 24.0165Z" fill="black"/>
<path d="M86.1658 16.8117H87.5345V17.9562H87.6408C87.821 17.5451 88.125 17.2006 88.5104 16.9705C88.8958 16.7404 89.3434 16.6363 89.7908 16.6726C90.1413 16.6463 90.4933 16.6991 90.8207 16.8273C91.148 16.9554 91.4424 17.1556 91.6819 17.4129C91.9214 17.6703 92.0999 17.9782 92.2042 18.3139C92.3085 18.6497 92.336 19.0045 92.2845 19.3523V24.0163H90.8627V19.7094C90.8627 18.5515 90.3595 17.9758 89.308 17.9758C89.07 17.9647 88.8324 18.0052 88.6115 18.0945C88.3906 18.1838 88.1916 18.3199 88.0282 18.4933C87.8648 18.6667 87.7408 18.8734 87.6648 19.0992C87.5888 19.325 87.5624 19.5646 87.5876 19.8015V24.0164H86.1658L86.1658 16.8117Z" fill="black"/>
<path d="M94.55 13.9993H95.9719V24.0165H94.55V13.9993Z" fill="black"/>
<path d="M97.9484 20.4109C97.9031 19.9374 97.9573 19.4597 98.1075 19.0084C98.2577 18.5571 98.5006 18.1421 98.8205 17.7901C99.1404 17.4381 99.5304 17.1569 99.9654 16.9645C100.4 16.772 100.871 16.6726 101.346 16.6726C101.822 16.6726 102.293 16.772 102.728 16.9645C103.163 17.1569 103.552 17.4381 103.872 17.7901C104.192 18.1421 104.435 18.5571 104.585 19.0084C104.736 19.4597 104.79 19.9374 104.744 20.4109C104.791 20.8849 104.737 21.3633 104.587 21.8153C104.437 22.2674 104.195 22.6831 103.875 23.0357C103.555 23.3884 103.164 23.6702 102.729 23.863C102.294 24.0559 101.823 24.1555 101.346 24.1555C100.87 24.1555 100.399 24.0559 99.9639 23.863C99.5285 23.6702 99.1382 23.3884 98.8182 23.0357C98.4982 22.6831 98.2555 22.2674 98.1057 21.8153C97.9559 21.3633 97.9023 20.8849 97.9484 20.4109ZM103.281 20.4109C103.281 18.8492 102.58 17.936 101.348 17.936C100.112 17.936 99.4172 18.8492 99.4172 20.411C99.4172 21.9852 100.113 22.8914 101.348 22.8914C102.58 22.8914 103.281 21.9789 103.281 20.4109Z" fill="black"/>
<path d="M106.241 21.9791C106.241 20.6822 107.207 19.9346 108.921 19.8283L110.873 19.7158V19.0939C110.873 18.333 110.37 17.9033 109.398 17.9033C108.604 17.9033 108.054 18.1947 107.896 18.7041H106.52C106.665 17.4666 107.829 16.6729 109.463 16.6729C111.27 16.6729 112.288 17.5721 112.288 19.0939V24.0166H110.92V23.0041H110.807C110.579 23.3673 110.258 23.6634 109.878 23.8621C109.498 24.0608 109.072 24.1551 108.643 24.1353C108.341 24.1668 108.035 24.1345 107.746 24.0406C107.456 23.9467 107.19 23.7932 106.964 23.59C106.738 23.3869 106.556 23.1386 106.432 22.8611C106.308 22.5836 106.243 22.2832 106.241 21.9791ZM110.873 21.3635V20.7611L109.113 20.8736C108.121 20.94 107.671 21.2775 107.671 21.9127C107.671 22.5611 108.234 22.9385 109.007 22.9385C109.234 22.9614 109.463 22.9385 109.68 22.8712C109.898 22.8038 110.1 22.6934 110.274 22.5464C110.448 22.3995 110.591 22.219 110.693 22.0158C110.796 21.8126 110.857 21.5907 110.873 21.3635Z" fill="black"/>
<path d="M114.157 20.411C114.157 18.1345 115.327 16.6923 117.148 16.6923C117.598 16.6715 118.045 16.7794 118.436 17.0032C118.827 17.227 119.147 17.5576 119.357 17.9563H119.463V13.9993H120.885V24.0165H119.523V22.8782H119.41C119.184 23.2741 118.853 23.6006 118.454 23.8222C118.055 24.0437 117.604 24.152 117.148 24.1352C115.315 24.1353 114.157 22.693 114.157 20.411ZM115.626 20.411C115.626 21.9391 116.346 22.8587 117.551 22.8587C118.749 22.8587 119.49 21.9259 119.49 20.4173C119.49 18.9157 118.741 17.9696 117.551 17.9696C116.354 17.9696 115.626 18.8954 115.626 20.411Z" fill="black"/>
<path d="M126.768 20.4111C126.723 19.9376 126.777 19.4599 126.927 19.0086C127.077 18.5573 127.32 18.1423 127.64 17.7903C127.96 17.4384 128.35 17.1571 128.785 16.9647C129.22 16.7723 129.69 16.6729 130.166 16.6729C130.641 16.6729 131.112 16.7723 131.547 16.9647C131.982 17.1571 132.372 17.4384 132.691 17.7903C133.011 18.1423 133.254 18.5573 133.404 19.0086C133.554 19.4599 133.609 19.9376 133.563 20.4111C133.609 20.885 133.556 21.3634 133.406 21.8154C133.256 22.2675 133.014 22.6832 132.694 23.0358C132.374 23.3885 131.984 23.6703 131.548 23.8632C131.113 24.056 130.642 24.1557 130.166 24.1557C129.689 24.1557 129.219 24.056 128.783 23.8632C128.348 23.6703 127.958 23.3885 127.638 23.0358C127.318 22.6832 127.075 22.2675 126.925 21.8154C126.775 21.3634 126.722 20.885 126.768 20.4111ZM132.101 20.4111C132.101 18.8493 131.399 17.9361 130.168 17.9361C128.932 17.9361 128.237 18.8493 128.237 20.4111C128.237 21.9853 128.932 22.8915 130.168 22.8915C131.399 22.8915 132.101 21.979 132.101 20.4111Z" fill="black"/>
<path d="M135.471 16.8117H136.84V17.9562H136.946C137.126 17.5451 137.43 17.2006 137.816 16.9705C138.201 16.7404 138.649 16.6363 139.096 16.6726C139.447 16.6463 139.799 16.6991 140.126 16.8273C140.453 16.9554 140.748 17.1556 140.987 17.4129C141.227 17.6703 141.405 17.9782 141.51 18.3139C141.614 18.6497 141.641 19.0045 141.59 19.3523V24.0163H140.168V19.7094C140.168 18.5515 139.665 17.9758 138.613 17.9758C138.375 17.9647 138.138 18.0052 137.917 18.0945C137.696 18.1838 137.497 18.3199 137.334 18.4933C137.17 18.6667 137.046 18.8734 136.97 19.0992C136.894 19.325 136.868 19.5646 136.893 19.8015V24.0164H135.471V16.8117Z" fill="black"/>
<path d="M149.624 15.0181V16.8446H151.185V18.0423H149.624V21.747C149.624 22.5017 149.935 22.8321 150.643 22.8321C150.824 22.8315 151.005 22.8206 151.185 22.7993V23.9837C150.93 24.0294 150.671 24.0537 150.412 24.0563C148.831 24.0563 148.201 23.5001 148.201 22.111V18.0422H147.057V16.8446H148.201V15.0181H149.624Z" fill="black"/>
<path d="M153.127 13.9993H154.537V17.9696H154.649C154.838 17.5547 155.151 17.2081 155.544 16.9772C155.937 16.7462 156.392 16.6421 156.846 16.679C157.195 16.66 157.543 16.7182 157.867 16.8495C158.191 16.9807 158.481 17.1818 158.718 17.4384C158.955 17.6949 159.133 18.0006 159.238 18.3336C159.343 18.6666 159.374 19.0188 159.327 19.3649V24.0165H157.904V19.7157C157.904 18.5649 157.368 17.9821 156.363 17.9821C156.119 17.962 155.873 17.9956 155.643 18.0805C155.413 18.1654 155.204 18.2995 155.032 18.4735C154.859 18.6475 154.726 18.8571 154.643 19.0877C154.56 19.3184 154.528 19.5644 154.549 19.8086V24.0164H153.128L153.127 13.9993Z" fill="black"/>
<path d="M167.618 22.0712C167.425 22.7296 167.006 23.2992 166.435 23.6802C165.865 24.0613 165.178 24.2295 164.496 24.1555C164.021 24.1681 163.55 24.0771 163.114 23.8891C162.678 23.7011 162.288 23.4204 161.971 23.0666C161.655 22.7127 161.419 22.2942 161.28 21.8401C161.141 21.386 161.103 20.9072 161.168 20.4368C161.105 19.965 161.144 19.4851 161.282 19.0296C161.42 18.5741 161.655 18.1537 161.97 17.7968C162.285 17.4399 162.673 17.1548 163.108 16.9609C163.542 16.7669 164.014 16.6687 164.49 16.6727C166.494 16.6727 167.704 18.0423 167.704 20.3047V20.8009H162.616V20.8806C162.594 21.1449 162.627 21.4111 162.714 21.6619C162.801 21.9127 162.939 22.1426 163.119 22.3369C163.3 22.5313 163.519 22.6857 163.763 22.7903C164.007 22.895 164.27 22.9475 164.535 22.9446C164.875 22.9854 165.22 22.9241 165.525 22.7686C165.83 22.6131 166.082 22.3703 166.249 22.0711L167.618 22.0712ZM162.616 19.7493H166.255C166.273 19.5075 166.24 19.2646 166.159 19.0363C166.077 18.8079 165.949 18.5991 165.782 18.4234C165.615 18.2476 165.413 18.1087 165.189 18.0156C164.965 17.9225 164.724 17.8773 164.482 17.8829C164.236 17.8798 163.992 17.926 163.764 18.0187C163.536 18.1114 163.329 18.2488 163.156 18.4227C162.982 18.5967 162.844 18.8036 162.752 19.0315C162.659 19.2593 162.613 19.5034 162.616 19.7493Z" fill="black"/>
</g>
</g>
<defs>
<clipPath id="clip0_13493_16841">
<rect width="191.463" height="64.0002" fill="white" transform="translate(0 0.5)"/>
</clipPath>
<clipPath id="clip1_13493_16841">
<rect y="0.5" width="191.463" height="64.0002" rx="11" fill="white"/>
</clipPath>
</defs>
</svg>
